<svg width="184" height="63" viewBox="0 0 184 63" fill="none" xmlns="http://www.w3.org/2000/svg">
<path d="M183.14 8C183.14 3.58172 179.558 0 175.14 0H3.90444C2.27425 0 1.32885 1.84564 2.28137 3.1686L44.1623 61.3372C44.914 62.3812 46.1219 63 47.4084 63H175.14C179.558 63 183.14 59.4183 183.14 55V8Z" fill="#3677B8"/>
<mask id="path-2-outside-1_11906_22769" maskUnits="userSpaceOnUse" x="78.8488" y="33.4302" width="93" height="21" fill="black">
<rect fill="white" x="78.8488" y="33.4302" width="93" height="21"/>
<path d="M89.9572 34.7509C90.9981 34.7509 91.9405 34.9433 92.7842 35.3281C93.6389 35.7021 94.3676 36.1938 94.9702 36.803C95.5839 37.4016 96.055 38.0749 96.3838 38.8231C96.7125 39.5713 96.8769 40.3195 96.8769 41.0677C96.8769 41.7303 96.6687 42.3983 96.2523 43.0717C95.8359 43.7344 95.2497 44.3329 94.4936 44.8673C93.7485 45.4018 92.85 45.8346 91.798 46.166C90.7461 46.4973 89.5901 46.663 88.33 46.663C87.6725 46.663 86.9822 46.5988 86.259 46.4706C86.3028 46.9302 86.4398 47.3256 86.6699 47.657C86.9 47.9883 87.1904 48.2609 87.541 48.4746C87.8917 48.6884 88.2861 48.8487 88.7244 48.9556C89.1737 49.0518 89.6339 49.0999 90.1051 49.0999C90.6311 49.0999 91.1351 49.0571 91.6172 48.9716C92.1103 48.8754 92.5815 48.7525 93.0308 48.6029C93.48 48.4533 93.9128 48.2876 94.3292 48.1059C94.7456 47.9242 95.1401 47.7425 95.5126 47.5608C95.6113 47.5394 95.6934 47.5234 95.7592 47.5127C95.8359 47.4913 95.9071 47.4806 95.9729 47.4806C95.9729 47.4806 95.9674 47.5661 95.9564 47.7371C95.9564 47.9082 95.9564 48.1486 95.9564 48.4586C95.9564 48.7686 95.9509 49.1427 95.94 49.5809C95.94 50.0191 95.9345 50.5054 95.9235 51.0398C95.9564 51.0933 95.9783 51.1467 95.9893 51.2001C96.0003 51.2536 96.0057 51.2963 96.0057 51.3284C96.0057 51.4567 95.8852 51.5956 95.6441 51.7452C95.4031 51.8949 95.0853 52.0499 94.6908 52.2102C94.3073 52.3705 93.8635 52.5255 93.3595 52.6751C92.8664 52.8248 92.3623 52.9584 91.8473 53.0759C91.3323 53.2042 90.8338 53.3004 90.3516 53.3645C89.8695 53.4393 89.4476 53.4767 89.086 53.4767C87.9026 53.4767 86.7521 53.2737 85.6344 52.8675C84.5277 52.4721 83.5415 51.9002 82.6759 51.152C81.8212 50.4039 81.1363 49.4954 80.6213 48.4265C80.1063 47.3577 79.8488 46.1553 79.8488 44.8192C79.8488 43.4191 80.0954 42.1098 80.5884 40.8913C81.0815 39.6621 81.7719 38.5933 82.6594 37.6848C83.5579 36.7763 84.6263 36.0602 85.8645 35.5365C87.1027 35.0127 88.4669 34.7509 89.9572 34.7509ZM89.7599 39.0155C89.3107 39.0155 88.8943 39.1117 88.5108 39.3041C88.1382 39.4858 87.793 39.753 87.4753 40.1057C87.1685 40.4477 86.9 40.8646 86.6699 41.3562C86.4398 41.8372 86.2535 42.3716 86.1111 42.9595C87.2397 42.7671 88.1766 42.564 88.9217 42.3503C89.6668 42.1365 90.264 41.9227 90.7132 41.709C91.1625 41.4845 91.4803 41.2654 91.6665 41.0516C91.8528 40.8272 91.946 40.6134 91.946 40.4103C91.946 40.2179 91.8693 40.0362 91.7158 39.8652C91.5734 39.6942 91.3926 39.5446 91.1734 39.4163C90.9543 39.2881 90.7132 39.1919 90.4502 39.1277C90.1982 39.0529 89.9681 39.0155 89.7599 39.0155Z"/>
<path d="M99.0136 48.2181C99.0136 48.2074 99.0081 48.2021 98.9971 48.2021C98.9971 48.1914 98.9971 48.1807 98.9971 48.17C98.9971 48.0311 99.0738 47.9616 99.2273 47.9616C99.3259 47.9616 99.4135 47.999 99.4902 48.0738C99.9285 48.48 100.427 48.8113 100.986 49.0678C101.556 49.3244 102.169 49.4526 102.827 49.4526C103.002 49.4526 103.205 49.4366 103.435 49.4045C103.665 49.3618 103.884 49.2976 104.092 49.2121C104.301 49.1266 104.47 49.0144 104.602 48.8754C104.744 48.7258 104.816 48.5441 104.816 48.3303C104.816 48.0952 104.755 47.8814 104.635 47.689C104.514 47.486 104.355 47.3203 104.158 47.192C104.049 47.1172 103.857 46.989 103.583 46.8073C103.309 46.6149 103.013 46.4118 102.695 46.198C102.389 45.9843 102.093 45.7812 101.808 45.5888C101.534 45.3964 101.342 45.2575 101.232 45.172C100.739 44.8086 100.345 44.4398 100.049 44.0657C99.7642 43.6916 99.545 43.3069 99.3916 42.9114C99.2382 42.5052 99.1396 42.083 99.0958 41.6448C99.0519 41.2066 99.03 40.7417 99.03 40.25C99.03 39.5018 99.2327 38.7964 99.6382 38.1337C100.044 37.4711 100.575 36.8885 101.232 36.3862C101.901 35.8838 102.657 35.4884 103.501 35.1998C104.344 34.9005 105.205 34.7509 106.081 34.7509C106.804 34.7509 107.517 34.8578 108.218 35.0715C108.919 35.2853 109.571 35.6487 110.174 36.1617C110.229 36.8351 110.267 37.4978 110.289 38.1498C110.311 38.8017 110.344 39.4858 110.388 40.2019C110.388 40.3409 110.355 40.437 110.289 40.4905C110.223 40.5332 110.146 40.5546 110.059 40.5546C109.982 40.5546 109.916 40.5279 109.862 40.4745C109.61 40.2393 109.352 40.0095 109.089 39.7851C108.826 39.5499 108.547 39.3468 108.251 39.1758C107.966 38.9941 107.659 38.8498 107.33 38.743C107.002 38.6254 106.651 38.5666 106.278 38.5666C106.048 38.5666 105.818 38.588 105.588 38.6307C105.358 38.6628 105.15 38.7323 104.964 38.8392C104.777 38.9353 104.624 39.0689 104.503 39.24C104.394 39.411 104.339 39.6301 104.339 39.8973C104.339 40.2073 104.377 40.4745 104.454 40.6989C104.531 40.9234 104.712 41.1425 104.996 41.3562L108.054 43.3763C108.612 43.7504 109.062 44.1192 109.401 44.4826C109.752 44.8353 110.026 45.188 110.223 45.5407C110.42 45.8934 110.552 46.2461 110.618 46.5988C110.694 46.9409 110.733 47.2829 110.733 47.6249C110.733 48.5869 110.503 49.4366 110.042 50.1741C109.593 50.9009 109.007 51.5101 108.284 52.0018C107.56 52.4827 106.739 52.8461 105.818 53.092C104.909 53.3485 103.994 53.4767 103.073 53.4767C102.372 53.4767 101.693 53.4019 101.035 53.2523C100.389 53.1133 99.7861 52.8942 99.2273 52.595L99.0136 48.2181Z"/>
<path d="M122.139 53.4767C120.594 53.4767 119.236 53.2309 118.063 52.7393C116.902 52.2476 115.927 51.5956 115.138 50.7833C114.349 49.9603 113.757 49.0197 113.362 47.9616C112.968 46.8928 112.771 45.7865 112.771 44.6429C112.771 43.4992 112.963 42.4144 113.346 41.3883C113.73 40.3515 114.266 39.427 114.957 38.6147C115.647 37.7917 116.474 37.1077 117.439 36.5625C118.403 36.0068 119.466 35.6327 120.627 35.4403C120.803 35.4296 120.89 35.3922 120.89 35.3281C120.89 35.2105 120.874 35.1036 120.841 35.0074C120.819 34.9005 120.808 34.8097 120.808 34.7349C120.808 34.6173 120.83 34.5371 120.874 34.4944C120.918 34.4516 120.967 34.4302 121.022 34.4302C123.115 34.4302 124.895 34.6654 126.364 35.1357C127.832 35.5953 129.026 36.2259 129.947 37.0275C130.867 37.8291 131.536 38.775 131.952 39.8652C132.368 40.9554 132.577 42.1258 132.577 43.3763C132.577 44.9689 132.303 46.3904 131.755 47.641C131.207 48.8915 130.456 49.9496 129.503 50.8154C128.561 51.6811 127.454 52.3384 126.183 52.7874C124.923 53.247 123.575 53.4767 122.139 53.4767ZM119.099 44.4665C119.099 45.0437 119.159 45.6155 119.28 46.182C119.411 46.7485 119.619 47.2615 119.904 47.7211C120.2 48.1807 120.584 48.5548 121.055 48.8434C121.526 49.1213 122.112 49.2602 122.813 49.2602C123.317 49.2388 123.756 49.132 124.128 48.9396C124.512 48.7365 124.841 48.48 125.114 48.17C125.388 47.8494 125.613 47.4913 125.788 47.0958C125.975 46.7004 126.117 46.2942 126.216 45.8774C126.325 45.4499 126.402 45.033 126.446 44.6269C126.49 44.2207 126.512 43.852 126.512 43.5206C126.512 42.9648 126.424 42.4197 126.249 41.8853C126.084 41.3509 125.838 40.8806 125.509 40.4745C125.18 40.0683 124.769 39.7423 124.276 39.4965C123.794 39.24 123.235 39.1117 122.6 39.1117C121.942 39.1117 121.389 39.3041 120.94 39.6889C120.49 40.063 120.129 40.5279 119.855 41.0837C119.592 41.6395 119.4 42.2273 119.28 42.8473C119.159 43.4565 119.099 43.9962 119.099 44.4665Z"/>
<path d="M146.317 34.9112C146.361 34.8043 146.443 34.7509 146.564 34.7509C146.586 34.7509 146.608 34.7562 146.63 34.7669C146.652 34.7669 146.673 34.7669 146.695 34.7669C147.517 35.0769 148.361 35.3334 149.227 35.5365C150.092 35.7289 150.952 35.9159 151.807 36.0976C152.015 36.1404 152.119 36.2579 152.119 36.4503C152.119 36.5893 152.054 36.803 151.922 37.0916L145.15 51.136C145.063 51.3284 144.986 51.4834 144.92 51.601C144.855 51.7185 144.789 51.8147 144.723 51.8895C144.657 51.9644 144.586 52.0178 144.509 52.0499C144.433 52.0819 144.34 52.1087 144.23 52.13C143.397 52.2903 142.553 52.4721 141.699 52.6751C140.844 52.8889 139.956 53.1508 139.036 53.4607C139.014 53.4607 138.998 53.4607 138.987 53.4607C138.976 53.4714 138.965 53.4767 138.954 53.4767H138.839C138.784 53.4767 138.74 53.4554 138.707 53.4126C138.674 53.3806 138.653 53.3485 138.642 53.3164C138.477 52.8568 138.285 52.2636 138.066 51.5368C137.858 50.81 137.628 49.9977 137.376 49.0999C137.124 48.2021 136.861 47.2455 136.587 46.2301C136.313 45.2147 136.034 44.1833 135.749 43.1358C135.464 42.0884 135.179 41.0516 134.894 40.0256C134.62 38.9888 134.352 38.0108 134.089 37.0916C133.99 36.7603 133.941 36.5251 133.941 36.3862C133.941 36.2366 134.028 36.1404 134.204 36.0976C135.058 35.9159 135.946 35.7289 136.866 35.5365C137.787 35.3334 138.658 35.0769 139.48 34.7669C139.513 34.7562 139.562 34.7509 139.628 34.7509C139.77 34.7509 139.847 34.8043 139.858 34.9112L142.027 45.685C142.082 45.5567 142.175 45.3269 142.307 44.9956C142.438 44.6536 142.597 44.2474 142.784 43.7771C142.97 43.3069 143.173 42.7885 143.392 42.222C143.622 41.6555 143.852 41.0783 144.082 40.4905C144.323 39.9026 144.559 39.3201 144.789 38.743C145.019 38.1551 145.233 37.61 145.43 37.1077C145.638 36.6053 145.819 36.1617 145.972 35.777C146.126 35.3922 146.241 35.1036 146.317 34.9112Z"/>
<path d="M169.262 49.4205C169.252 49.4633 169.246 49.5061 169.246 49.5488C169.246 49.5809 169.246 49.6129 169.246 49.645C169.246 49.9122 169.29 50.1367 169.378 50.3184C169.465 50.4894 169.558 50.6337 169.657 50.7512C169.767 50.8581 169.865 50.949 169.953 51.0238C170.04 51.0879 170.084 51.1467 170.084 51.2001C170.084 51.3498 169.92 51.4887 169.591 51.617L165.17 53.4607C165.159 53.4714 165.12 53.4767 165.055 53.4767C164.967 53.4767 164.879 53.4019 164.792 53.2523C164.704 53.1027 164.616 52.9103 164.529 52.6751C164.452 52.4507 164.375 52.2102 164.299 51.9537C164.233 51.6865 164.173 51.4406 164.118 51.2162C163.428 51.9964 162.682 52.5682 161.883 52.9316C161.083 53.295 160.288 53.4767 159.499 53.4767C158.579 53.4767 157.68 53.279 156.804 52.8836C155.927 52.4881 155.149 51.9269 154.47 51.2001C153.79 50.4627 153.243 49.5755 152.826 48.5388C152.421 47.502 152.218 46.337 152.218 45.0437C152.218 43.5153 152.443 42.1205 152.892 40.8592C153.352 39.598 153.971 38.5132 154.749 37.6047C155.527 36.6962 156.431 35.9961 157.461 35.5044C158.502 35.0021 159.603 34.7509 160.765 34.7509C161.587 34.7509 162.365 34.9166 163.099 35.2479C163.833 35.5685 164.529 35.9854 165.186 36.4984C165.252 36.1778 165.29 35.9213 165.301 35.7289C165.312 35.5365 165.334 35.3868 165.367 35.28C165.411 35.1731 165.488 35.1036 165.597 35.0715C165.707 35.0288 165.888 34.9967 166.14 34.9753C166.928 34.8685 167.712 34.7723 168.49 34.6868C169.279 34.5906 170.101 34.5211 170.955 34.4783L169.262 49.4205ZM164.348 43.3763C164.458 42.7671 164.529 42.1953 164.562 41.6609C164.605 41.1158 164.638 40.6188 164.66 40.1698C164.485 40.0416 164.293 39.908 164.085 39.769C163.888 39.6301 163.669 39.5018 163.428 39.3843C163.197 39.256 162.951 39.1545 162.688 39.0796C162.436 39.0048 162.167 38.9674 161.883 38.9674C161.291 38.9674 160.792 39.1545 160.387 39.5285C159.992 39.9026 159.669 40.3622 159.417 40.9073C159.176 41.4524 159.001 42.0296 158.891 42.6388C158.793 43.2481 158.743 43.7878 158.743 44.2581C158.743 45.9469 158.968 47.1867 159.417 47.9776C159.877 48.7579 160.513 49.148 161.324 49.148C161.652 49.148 162.02 49.0571 162.425 48.8754C162.83 48.6937 163.241 48.4426 163.658 48.1219L164.348 43.3763Z"/>
</mask>
<path d="M89.9572 34.7509C90.9981 34.7509 91.9405 34.9433 92.7842 35.3281C93.6389 35.7021 94.3676 36.1938 94.9702 36.803C95.5839 37.4016 96.055 38.0749 96.3838 38.8231C96.7125 39.5713 96.8769 40.3195 96.8769 41.0677C96.8769 41.7303 96.6687 42.3983 96.2523 43.0717C95.8359 43.7344 95.2497 44.3329 94.4936 44.8673C93.7485 45.4018 92.85 45.8346 91.798 46.166C90.7461 46.4973 89.5901 46.663 88.33 46.663C87.6725 46.663 86.9822 46.5988 86.259 46.4706C86.3028 46.9302 86.4398 47.3256 86.6699 47.657C86.9 47.9883 87.1904 48.2609 87.541 48.4746C87.8917 48.6884 88.2861 48.8487 88.7244 48.9556C89.1737 49.0518 89.6339 49.0999 90.1051 49.0999C90.6311 49.0999 91.1351 49.0571 91.6172 48.9716C92.1103 48.8754 92.5815 48.7525 93.0308 48.6029C93.48 48.4533 93.9128 48.2876 94.3292 48.1059C94.7456 47.9242 95.1401 47.7425 95.5126 47.5608C95.6113 47.5394 95.6934 47.5234 95.7592 47.5127C95.8359 47.4913 95.9071 47.4806 95.9729 47.4806C95.9729 47.4806 95.9674 47.5661 95.9564 47.7371C95.9564 47.9082 95.9564 48.1486 95.9564 48.4586C95.9564 48.7686 95.9509 49.1427 95.94 49.5809C95.94 50.0191 95.9345 50.5054 95.9235 51.0398C95.9564 51.0933 95.9783 51.1467 95.9893 51.2001C96.0003 51.2536 96.0057 51.2963 96.0057 51.3284C96.0057 51.4567 95.8852 51.5956 95.6441 51.7452C95.4031 51.8949 95.0853 52.0499 94.6908 52.2102C94.3073 52.3705 93.8635 52.5255 93.3595 52.6751C92.8664 52.8248 92.3623 52.9584 91.8473 53.0759C91.3323 53.2042 90.8338 53.3004 90.3516 53.3645C89.8695 53.4393 89.4476 53.4767 89.086 53.4767C87.9026 53.4767 86.7521 53.2737 85.6344 52.8675C84.5277 52.4721 83.5415 51.9002 82.6759 51.152C81.8212 50.4039 81.1363 49.4954 80.6213 48.4265C80.1063 47.3577 79.8488 46.1553 79.8488 44.8192C79.8488 43.4191 80.0954 42.1098 80.5884 40.8913C81.0815 39.6621 81.7719 38.5933 82.6594 37.6848C83.5579 36.7763 84.6263 36.0602 85.8645 35.5365C87.1027 35.0127 88.4669 34.7509 89.9572 34.7509ZM89.7599 39.0155C89.3107 39.0155 88.8943 39.1117 88.5108 39.3041C88.1382 39.4858 87.793 39.753 87.4753 40.1057C87.1685 40.4477 86.9 40.8646 86.6699 41.3562C86.4398 41.8372 86.2535 42.3716 86.1111 42.9595C87.2397 42.7671 88.1766 42.564 88.9217 42.3503C89.6668 42.1365 90.264 41.9227 90.7132 41.709C91.1625 41.4845 91.4803 41.2654 91.6665 41.0516C91.8528 40.8272 91.946 40.6134 91.946 40.4103C91.946 40.2179 91.8693 40.0362 91.7158 39.8652C91.5734 39.6942 91.3926 39.5446 91.1734 39.4163C90.9543 39.2881 90.7132 39.1919 90.4502 39.1277C90.1982 39.0529 89.9681 39.0155 89.7599 39.0155Z" fill="#FFF000"/>
<path d="M99.0136 48.2181C99.0136 48.2074 99.0081 48.2021 98.9971 48.2021C98.9971 48.1914 98.9971 48.1807 98.9971 48.17C98.9971 48.0311 99.0738 47.9616 99.2273 47.9616C99.3259 47.9616 99.4135 47.999 99.4902 48.0738C99.9285 48.48 100.427 48.8113 100.986 49.0678C101.556 49.3244 102.169 49.4526 102.827 49.4526C103.002 49.4526 103.205 49.4366 103.435 49.4045C103.665 49.3618 103.884 49.2976 104.092 49.2121C104.301 49.1266 104.47 49.0144 104.602 48.8754C104.744 48.7258 104.816 48.5441 104.816 48.3303C104.816 48.0952 104.755 47.8814 104.635 47.689C104.514 47.486 104.355 47.3203 104.158 47.192C104.049 47.1172 103.857 46.989 103.583 46.8073C103.309 46.6149 103.013 46.4118 102.695 46.198C102.389 45.9843 102.093 45.7812 101.808 45.5888C101.534 45.3964 101.342 45.2575 101.232 45.172C100.739 44.8086 100.345 44.4398 100.049 44.0657C99.7642 43.6916 99.545 43.3069 99.3916 42.9114C99.2382 42.5052 99.1396 42.083 99.0958 41.6448C99.0519 41.2066 99.03 40.7417 99.03 40.25C99.03 39.5018 99.2327 38.7964 99.6382 38.1337C100.044 37.4711 100.575 36.8885 101.232 36.3862C101.901 35.8838 102.657 35.4884 103.501 35.1998C104.344 34.9005 105.205 34.7509 106.081 34.7509C106.804 34.7509 107.517 34.8578 108.218 35.0715C108.919 35.2853 109.571 35.6487 110.174 36.1617C110.229 36.8351 110.267 37.4978 110.289 38.1498C110.311 38.8017 110.344 39.4858 110.388 40.2019C110.388 40.3409 110.355 40.437 110.289 40.4905C110.223 40.5332 110.146 40.5546 110.059 40.5546C109.982 40.5546 109.916 40.5279 109.862 40.4745C109.61 40.2393 109.352 40.0095 109.089 39.7851C108.826 39.5499 108.547 39.3468 108.251 39.1758C107.966 38.9941 107.659 38.8498 107.33 38.743C107.002 38.6254 106.651 38.5666 106.278 38.5666C106.048 38.5666 105.818 38.588 105.588 38.6307C105.358 38.6628 105.15 38.7323 104.964 38.8392C104.777 38.9353 104.624 39.0689 104.503 39.24C104.394 39.411 104.339 39.6301 104.339 39.8973C104.339 40.2073 104.377 40.4745 104.454 40.6989C104.531 40.9234 104.712 41.1425 104.996 41.3562L108.054 43.3763C108.612 43.7504 109.062 44.1192 109.401 44.4826C109.752 44.8353 110.026 45.188 110.223 45.5407C110.42 45.8934 110.552 46.2461 110.618 46.5988C110.694 46.9409 110.733 47.2829 110.733 47.6249C110.733 48.5869 110.503 49.4366 110.042 50.1741C109.593 50.9009 109.007 51.5101 108.284 52.0018C107.56 52.4827 106.739 52.8461 105.818 53.092C104.909 53.3485 103.994 53.4767 103.073 53.4767C102.372 53.4767 101.693 53.4019 101.035 53.2523C100.389 53.1133 99.7861 52.8942 99.2273 52.595L99.0136 48.2181Z" fill="#FFF000"/>
<path d="M122.139 53.4767C120.594 53.4767 119.236 53.2309 118.063 52.7393C116.902 52.2476 115.927 51.5956 115.138 50.7833C114.349 49.9603 113.757 49.0197 113.362 47.9616C112.968 46.8928 112.771 45.7865 112.771 44.6429C112.771 43.4992 112.963 42.4144 113.346 41.3883C113.73 40.3515 114.266 39.427 114.957 38.6147C115.647 37.7917 116.474 37.1077 117.439 36.5625C118.403 36.0068 119.466 35.6327 120.627 35.4403C120.803 35.4296 120.89 35.3922 120.89 35.3281C120.89 35.2105 120.874 35.1036 120.841 35.0074C120.819 34.9005 120.808 34.8097 120.808 34.7349C120.808 34.6173 120.83 34.5371 120.874 34.4944C120.918 34.4516 120.967 34.4302 121.022 34.4302C123.115 34.4302 124.895 34.6654 126.364 35.1357C127.832 35.5953 129.026 36.2259 129.947 37.0275C130.867 37.8291 131.536 38.775 131.952 39.8652C132.368 40.9554 132.577 42.1258 132.577 43.3763C132.577 44.9689 132.303 46.3904 131.755 47.641C131.207 48.8915 130.456 49.9496 129.503 50.8154C128.561 51.6811 127.454 52.3384 126.183 52.7874C124.923 53.247 123.575 53.4767 122.139 53.4767ZM119.099 44.4665C119.099 45.0437 119.159 45.6155 119.28 46.182C119.411 46.7485 119.619 47.2615 119.904 47.7211C120.2 48.1807 120.584 48.5548 121.055 48.8434C121.526 49.1213 122.112 49.2602 122.813 49.2602C123.317 49.2388 123.756 49.132 124.128 48.9396C124.512 48.7365 124.841 48.48 125.114 48.17C125.388 47.8494 125.613 47.4913 125.788 47.0958C125.975 46.7004 126.117 46.2942 126.216 45.8774C126.325 45.4499 126.402 45.033 126.446 44.6269C126.49 44.2207 126.512 43.852 126.512 43.5206C126.512 42.9648 126.424 42.4197 126.249 41.8853C126.084 41.3509 125.838 40.8806 125.509 40.4745C125.18 40.0683 124.769 39.7423 124.276 39.4965C123.794 39.24 123.235 39.1117 122.6 39.1117C121.942 39.1117 121.389 39.3041 120.94 39.6889C120.49 40.063 120.129 40.5279 119.855 41.0837C119.592 41.6395 119.4 42.2273 119.28 42.8473C119.159 43.4565 119.099 43.9962 119.099 44.4665Z" fill="#FFF000"/>
<path d="M146.317 34.9112C146.361 34.8043 146.443 34.7509 146.564 34.7509C146.586 34.7509 146.608 34.7562 146.63 34.7669C146.652 34.7669 146.673 34.7669 146.695 34.7669C147.517 35.0769 148.361 35.3334 149.227 35.5365C150.092 35.7289 150.952 35.9159 151.807 36.0976C152.015 36.1404 152.119 36.2579 152.119 36.4503C152.119 36.5893 152.054 36.803 151.922 37.0916L145.15 51.136C145.063 51.3284 144.986 51.4834 144.92 51.601C144.855 51.7185 144.789 51.8147 144.723 51.8895C144.657 51.9644 144.586 52.0178 144.509 52.0499C144.433 52.0819 144.34 52.1087 144.23 52.13C143.397 52.2903 142.553 52.4721 141.699 52.6751C140.844 52.8889 139.956 53.1508 139.036 53.4607C139.014 53.4607 138.998 53.4607 138.987 53.4607C138.976 53.4714 138.965 53.4767 138.954 53.4767H138.839C138.784 53.4767 138.74 53.4554 138.707 53.4126C138.674 53.3806 138.653 53.3485 138.642 53.3164C138.477 52.8568 138.285 52.2636 138.066 51.5368C137.858 50.81 137.628 49.9977 137.376 49.0999C137.124 48.2021 136.861 47.2455 136.587 46.2301C136.313 45.2147 136.034 44.1833 135.749 43.1358C135.464 42.0884 135.179 41.0516 134.894 40.0256C134.62 38.9888 134.352 38.0108 134.089 37.0916C133.99 36.7603 133.941 36.5251 133.941 36.3862C133.941 36.2366 134.028 36.1404 134.204 36.0976C135.058 35.9159 135.946 35.7289 136.866 35.5365C137.787 35.3334 138.658 35.0769 139.48 34.7669C139.513 34.7562 139.562 34.7509 139.628 34.7509C139.77 34.7509 139.847 34.8043 139.858 34.9112L142.027 45.685C142.082 45.5567 142.175 45.3269 142.307 44.9956C142.438 44.6536 142.597 44.2474 142.784 43.7771C142.97 43.3069 143.173 42.7885 143.392 42.222C143.622 41.6555 143.852 41.0783 144.082 40.4905C144.323 39.9026 144.559 39.3201 144.789 38.743C145.019 38.1551 145.233 37.61 145.43 37.1077C145.638 36.6053 145.819 36.1617 145.972 35.777C146.126 35.3922 146.241 35.1036 146.317 34.9112Z" fill="#FFF000"/>
<path d="M169.262 49.4205C169.252 49.4633 169.246 49.5061 169.246 49.5488C169.246 49.5809 169.246 49.6129 169.246 49.645C169.246 49.9122 169.29 50.1367 169.378 50.3184C169.465 50.4894 169.558 50.6337 169.657 50.7512C169.767 50.8581 169.865 50.949 169.953 51.0238C170.04 51.0879 170.084 51.1467 170.084 51.2001C170.084 51.3498 169.92 51.4887 169.591 51.617L165.17 53.4607C165.159 53.4714 165.12 53.4767 165.055 53.4767C164.967 53.4767 164.879 53.4019 164.792 53.2523C164.704 53.1027 164.616 52.9103 164.529 52.6751C164.452 52.4507 164.375 52.2102 164.299 51.9537C164.233 51.6865 164.173 51.4406 164.118 51.2162C163.428 51.9964 162.682 52.5682 161.883 52.9316C161.083 53.295 160.288 53.4767 159.499 53.4767C158.579 53.4767 157.68 53.279 156.804 52.8836C155.927 52.4881 155.149 51.9269 154.47 51.2001C153.79 50.4627 153.243 49.5755 152.826 48.5388C152.421 47.502 152.218 46.337 152.218 45.0437C152.218 43.5153 152.443 42.1205 152.892 40.8592C153.352 39.598 153.971 38.5132 154.749 37.6047C155.527 36.6962 156.431 35.9961 157.461 35.5044C158.502 35.0021 159.603 34.7509 160.765 34.7509C161.587 34.7509 162.365 34.9166 163.099 35.2479C163.833 35.5685 164.529 35.9854 165.186 36.4984C165.252 36.1778 165.29 35.9213 165.301 35.7289C165.312 35.5365 165.334 35.3868 165.367 35.28C165.411 35.1731 165.488 35.1036 165.597 35.0715C165.707 35.0288 165.888 34.9967 166.14 34.9753C166.928 34.8685 167.712 34.7723 168.49 34.6868C169.279 34.5906 170.101 34.5211 170.955 34.4783L169.262 49.4205ZM164.348 43.3763C164.458 42.7671 164.529 42.1953 164.562 41.6609C164.605 41.1158 164.638 40.6188 164.66 40.1698C164.485 40.0416 164.293 39.908 164.085 39.769C163.888 39.6301 163.669 39.5018 163.428 39.3843C163.197 39.256 162.951 39.1545 162.688 39.0796C162.436 39.0048 162.167 38.9674 161.883 38.9674C161.291 38.9674 160.792 39.1545 160.387 39.5285C159.992 39.9026 159.669 40.3622 159.417 40.9073C159.176 41.4524 159.001 42.0296 158.891 42.6388C158.793 43.2481 158.743 43.7878 158.743 44.2581C158.743 45.9469 158.968 47.1867 159.417 47.9776C159.877 48.7579 160.513 49.148 161.324 49.148C161.652 49.148 162.02 49.0571 162.425 48.8754C162.83 48.6937 163.241 48.4426 163.658 48.1219L164.348 43.3763Z" fill="#FFF000"/>
<path d="M89.9572 34.7509C90.9981 34.7509 91.9405 34.9433 92.7842 35.3281C93.6389 35.7021 94.3676 36.1938 94.9702 36.803C95.5839 37.4016 96.055 38.0749 96.3838 38.8231C96.7125 39.5713 96.8769 40.3195 96.8769 41.0677C96.8769 41.7303 96.6687 42.3983 96.2523 43.0717C95.8359 43.7344 95.2497 44.3329 94.4936 44.8673C93.7485 45.4018 92.85 45.8346 91.798 46.166C90.7461 46.4973 89.5901 46.663 88.33 46.663C87.6725 46.663 86.9822 46.5988 86.259 46.4706C86.3028 46.9302 86.4398 47.3256 86.6699 47.657C86.9 47.9883 87.1904 48.2609 87.541 48.4746C87.8917 48.6884 88.2861 48.8487 88.7244 48.9556C89.1737 49.0518 89.6339 49.0999 90.1051 49.0999C90.6311 49.0999 91.1351 49.0571 91.6172 48.9716C92.1103 48.8754 92.5815 48.7525 93.0308 48.6029C93.48 48.4533 93.9128 48.2876 94.3292 48.1059C94.7456 47.9242 95.1401 47.7425 95.5126 47.5608C95.6113 47.5394 95.6934 47.5234 95.7592 47.5127C95.8359 47.4913 95.9071 47.4806 95.9729 47.4806C95.9729 47.4806 95.9674 47.5661 95.9564 47.7371C95.9564 47.9082 95.9564 48.1486 95.9564 48.4586C95.9564 48.7686 95.9509 49.1427 95.94 49.5809C95.94 50.0191 95.9345 50.5054 95.9235 51.0398C95.9564 51.0933 95.9783 51.1467 95.9893 51.2001C96.0003 51.2536 96.0057 51.2963 96.0057 51.3284C96.0057 51.4567 95.8852 51.5956 95.6441 51.7452C95.4031 51.8949 95.0853 52.0499 94.6908 52.2102C94.3073 52.3705 93.8635 52.5255 93.3595 52.6751C92.8664 52.8248 92.3623 52.9584 91.8473 53.0759C91.3323 53.2042 90.8338 53.3004 90.3516 53.3645C89.8695 53.4393 89.4476 53.4767 89.086 53.4767C87.9026 53.4767 86.7521 53.2737 85.6344 52.8675C84.5277 52.4721 83.5415 51.9002 82.6759 51.152C81.8212 50.4039 81.1363 49.4954 80.6213 48.4265C80.1063 47.3577 79.8488 46.1553 79.8488 44.8192C79.8488 43.4191 80.0954 42.1098 80.5884 40.8913C81.0815 39.6621 81.7719 38.5933 82.6594 37.6848C83.5579 36.7763 84.6263 36.0602 85.8645 35.5365C87.1027 35.0127 88.4669 34.7509 89.9572 34.7509ZM89.7599 39.0155C89.3107 39.0155 88.8943 39.1117 88.5108 39.3041C88.1382 39.4858 87.793 39.753 87.4753 40.1057C87.1685 40.4477 86.9 40.8646 86.6699 41.3562C86.4398 41.8372 86.2535 42.3716 86.1111 42.9595C87.2397 42.7671 88.1766 42.564 88.9217 42.3503C89.6668 42.1365 90.264 41.9227 90.7132 41.709C91.1625 41.4845 91.4803 41.2654 91.6665 41.0516C91.8528 40.8272 91.946 40.6134 91.946 40.4103C91.946 40.2179 91.8693 40.0362 91.7158 39.8652C91.5734 39.6942 91.3926 39.5446 91.1734 39.4163C90.9543 39.2881 90.7132 39.1919 90.4502 39.1277C90.1982 39.0529 89.9681 39.0155 89.7599 39.0155Z" stroke="#5E2C0B" stroke-width="0.6" mask="url(#path-2-outside-1_11906_22769)"/>
<path d="M99.0136 48.2181C99.0136 48.2074 99.0081 48.2021 98.9971 48.2021C98.9971 48.1914 98.9971 48.1807 98.9971 48.17C98.9971 48.0311 99.0738 47.9616 99.2273 47.9616C99.3259 47.9616 99.4135 47.999 99.4902 48.0738C99.9285 48.48 100.427 48.8113 100.986 49.0678C101.556 49.3244 102.169 49.4526 102.827 49.4526C103.002 49.4526 103.205 49.4366 103.435 49.4045C103.665 49.3618 103.884 49.2976 104.092 49.2121C104.301 49.1266 104.47 49.0144 104.602 48.8754C104.744 48.7258 104.816 48.5441 104.816 48.3303C104.816 48.0952 104.755 47.8814 104.635 47.689C104.514 47.486 104.355 47.3203 104.158 47.192C104.049 47.1172 103.857 46.989 103.583 46.8073C103.309 46.6149 103.013 46.4118 102.695 46.198C102.389 45.9843 102.093 45.7812 101.808 45.5888C101.534 45.3964 101.342 45.2575 101.232 45.172C100.739 44.8086 100.345 44.4398 100.049 44.0657C99.7642 43.6916 99.545 43.3069 99.3916 42.9114C99.2382 42.5052 99.1396 42.083 99.0958 41.6448C99.0519 41.2066 99.03 40.7417 99.03 40.25C99.03 39.5018 99.2327 38.7964 99.6382 38.1337C100.044 37.4711 100.575 36.8885 101.232 36.3862C101.901 35.8838 102.657 35.4884 103.501 35.1998C104.344 34.9005 105.205 34.7509 106.081 34.7509C106.804 34.7509 107.517 34.8578 108.218 35.0715C108.919 35.2853 109.571 35.6487 110.174 36.1617C110.229 36.8351 110.267 37.4978 110.289 38.1498C110.311 38.8017 110.344 39.4858 110.388 40.2019C110.388 40.3409 110.355 40.437 110.289 40.4905C110.223 40.5332 110.146 40.5546 110.059 40.5546C109.982 40.5546 109.916 40.5279 109.862 40.4745C109.61 40.2393 109.352 40.0095 109.089 39.7851C108.826 39.5499 108.547 39.3468 108.251 39.1758C107.966 38.9941 107.659 38.8498 107.33 38.743C107.002 38.6254 106.651 38.5666 106.278 38.5666C106.048 38.5666 105.818 38.588 105.588 38.6307C105.358 38.6628 105.15 38.7323 104.964 38.8392C104.777 38.9353 104.624 39.0689 104.503 39.24C104.394 39.411 104.339 39.6301 104.339 39.8973C104.339 40.2073 104.377 40.4745 104.454 40.6989C104.531 40.9234 104.712 41.1425 104.996 41.3562L108.054 43.3763C108.612 43.7504 109.062 44.1192 109.401 44.4826C109.752 44.8353 110.026 45.188 110.223 45.5407C110.42 45.8934 110.552 46.2461 110.618 46.5988C110.694 46.9409 110.733 47.2829 110.733 47.6249C110.733 48.5869 110.503 49.4366 110.042 50.1741C109.593 50.9009 109.007 51.5101 108.284 52.0018C107.56 52.4827 106.739 52.8461 105.818 53.092C104.909 53.3485 103.994 53.4767 103.073 53.4767C102.372 53.4767 101.693 53.4019 101.035 53.2523C100.389 53.1133 99.7861 52.8942 99.2273 52.595L99.0136 48.2181Z" stroke="#5E2C0B" stroke-width="0.6" mask="url(#path-2-outside-1_11906_22769)"/>
<path d="M122.139 53.4767C120.594 53.4767 119.236 53.2309 118.063 52.7393C116.902 52.2476 115.927 51.5956 115.138 50.7833C114.349 49.9603 113.757 49.0197 113.362 47.9616C112.968 46.8928 112.771 45.7865 112.771 44.6429C112.771 43.4992 112.963 42.4144 113.346 41.3883C113.73 40.3515 114.266 39.427 114.957 38.6147C115.647 37.7917 116.474 37.1077 117.439 36.5625C118.403 36.0068 119.466 35.6327 120.627 35.4403C120.803 35.4296 120.89 35.3922 120.89 35.3281C120.89 35.2105 120.874 35.1036 120.841 35.0074C120.819 34.9005 120.808 34.8097 120.808 34.7349C120.808 34.6173 120.83 34.5371 120.874 34.4944C120.918 34.4516 120.967 34.4302 121.022 34.4302C123.115 34.4302 124.895 34.6654 126.364 35.1357C127.832 35.5953 129.026 36.2259 129.947 37.0275C130.867 37.8291 131.536 38.775 131.952 39.8652C132.368 40.9554 132.577 42.1258 132.577 43.3763C132.577 44.9689 132.303 46.3904 131.755 47.641C131.207 48.8915 130.456 49.9496 129.503 50.8154C128.561 51.6811 127.454 52.3384 126.183 52.7874C124.923 53.247 123.575 53.4767 122.139 53.4767ZM119.099 44.4665C119.099 45.0437 119.159 45.6155 119.28 46.182C119.411 46.7485 119.619 47.2615 119.904 47.7211C120.2 48.1807 120.584 48.5548 121.055 48.8434C121.526 49.1213 122.112 49.2602 122.813 49.2602C123.317 49.2388 123.756 49.132 124.128 48.9396C124.512 48.7365 124.841 48.48 125.114 48.17C125.388 47.8494 125.613 47.4913 125.788 47.0958C125.975 46.7004 126.117 46.2942 126.216 45.8774C126.325 45.4499 126.402 45.033 126.446 44.6269C126.49 44.2207 126.512 43.852 126.512 43.5206C126.512 42.9648 126.424 42.4197 126.249 41.8853C126.084 41.3509 125.838 40.8806 125.509 40.4745C125.18 40.0683 124.769 39.7423 124.276 39.4965C123.794 39.24 123.235 39.1117 122.6 39.1117C121.942 39.1117 121.389 39.3041 120.94 39.6889C120.49 40.063 120.129 40.5279 119.855 41.0837C119.592 41.6395 119.4 42.2273 119.28 42.8473C119.159 43.4565 119.099 43.9962 119.099 44.4665Z" stroke="#5E2C0B" stroke-width="0.6" mask="url(#path-2-outside-1_11906_22769)"/>
<path d="M146.317 34.9112C146.361 34.8043 146.443 34.7509 146.564 34.7509C146.586 34.7509 146.608 34.7562 146.63 34.7669C146.652 34.7669 146.673 34.7669 146.695 34.7669C147.517 35.0769 148.361 35.3334 149.227 35.5365C150.092 35.7289 150.952 35.9159 151.807 36.0976C152.015 36.1404 152.119 36.2579 152.119 36.4503C152.119 36.5893 152.054 36.803 151.922 37.0916L145.15 51.136C145.063 51.3284 144.986 51.4834 144.92 51.601C144.855 51.7185 144.789 51.8147 144.723 51.8895C144.657 51.9644 144.586 52.0178 144.509 52.0499C144.433 52.0819 144.34 52.1087 144.23 52.13C143.397 52.2903 142.553 52.4721 141.699 52.6751C140.844 52.8889 139.956 53.1508 139.036 53.4607C139.014 53.4607 138.998 53.4607 138.987 53.4607C138.976 53.4714 138.965 53.4767 138.954 53.4767H138.839C138.784 53.4767 138.74 53.4554 138.707 53.4126C138.674 53.3806 138.653 53.3485 138.642 53.3164C138.477 52.8568 138.285 52.2636 138.066 51.5368C137.858 50.81 137.628 49.9977 137.376 49.0999C137.124 48.2021 136.861 47.2455 136.587 46.2301C136.313 45.2147 136.034 44.1833 135.749 43.1358C135.464 42.0884 135.179 41.0516 134.894 40.0256C134.62 38.9888 134.352 38.0108 134.089 37.0916C133.99 36.7603 133.941 36.5251 133.941 36.3862C133.941 36.2366 134.028 36.1404 134.204 36.0976C135.058 35.9159 135.946 35.7289 136.866 35.5365C137.787 35.3334 138.658 35.0769 139.48 34.7669C139.513 34.7562 139.562 34.7509 139.628 34.7509C139.77 34.7509 139.847 34.8043 139.858 34.9112L142.027 45.685C142.082 45.5567 142.175 45.3269 142.307 44.9956C142.438 44.6536 142.597 44.2474 142.784 43.7771C142.97 43.3069 143.173 42.7885 143.392 42.222C143.622 41.6555 143.852 41.0783 144.082 40.4905C144.323 39.9026 144.559 39.3201 144.789 38.743C145.019 38.1551 145.233 37.61 145.43 37.1077C145.638 36.6053 145.819 36.1617 145.972 35.777C146.126 35.3922 146.241 35.1036 146.317 34.9112Z" stroke="#5E2C0B" stroke-width="0.6" mask="url(#path-2-outside-1_11906_22769)"/>
<path d="M169.262 49.4205C169.252 49.4633 169.246 49.5061 169.246 49.5488C169.246 49.5809 169.246 49.6129 169.246 49.645C169.246 49.9122 169.29 50.1367 169.378 50.3184C169.465 50.4894 169.558 50.6337 169.657 50.7512C169.767 50.8581 169.865 50.949 169.953 51.0238C170.04 51.0879 170.084 51.1467 170.084 51.2001C170.084 51.3498 169.92 51.4887 169.591 51.617L165.17 53.4607C165.159 53.4714 165.12 53.4767 165.055 53.4767C164.967 53.4767 164.879 53.4019 164.792 53.2523C164.704 53.1027 164.616 52.9103 164.529 52.6751C164.452 52.4507 164.375 52.2102 164.299 51.9537C164.233 51.6865 164.173 51.4406 164.118 51.2162C163.428 51.9964 162.682 52.5682 161.883 52.9316C161.083 53.295 160.288 53.4767 159.499 53.4767C158.579 53.4767 157.68 53.279 156.804 52.8836C155.927 52.4881 155.149 51.9269 154.47 51.2001C153.79 50.4627 153.243 49.5755 152.826 48.5388C152.421 47.502 152.218 46.337 152.218 45.0437C152.218 43.5153 152.443 42.1205 152.892 40.8592C153.352 39.598 153.971 38.5132 154.749 37.6047C155.527 36.6962 156.431 35.9961 157.461 35.5044C158.502 35.0021 159.603 34.7509 160.765 34.7509C161.587 34.7509 162.365 34.9166 163.099 35.2479C163.833 35.5685 164.529 35.9854 165.186 36.4984C165.252 36.1778 165.29 35.9213 165.301 35.7289C165.312 35.5365 165.334 35.3868 165.367 35.28C165.411 35.1731 165.488 35.1036 165.597 35.0715C165.707 35.0288 165.888 34.9967 166.14 34.9753C166.928 34.8685 167.712 34.7723 168.49 34.6868C169.279 34.5906 170.101 34.5211 170.955 34.4783L169.262 49.4205ZM164.348 43.3763C164.458 42.7671 164.529 42.1953 164.562 41.6609C164.605 41.1158 164.638 40.6188 164.66 40.1698C164.485 40.0416 164.293 39.908 164.085 39.769C163.888 39.6301 163.669 39.5018 163.428 39.3843C163.197 39.256 162.951 39.1545 162.688 39.0796C162.436 39.0048 162.167 38.9674 161.883 38.9674C161.291 38.9674 160.792 39.1545 160.387 39.5285C159.992 39.9026 159.669 40.3622 159.417 40.9073C159.176 41.4524 159.001 42.0296 158.891 42.6388C158.793 43.2481 158.743 43.7878 158.743 44.2581C158.743 45.9469 158.968 47.1867 159.417 47.9776C159.877 48.7579 160.513 49.148 161.324 49.148C161.652 49.148 162.02 49.0571 162.425 48.8754C162.83 48.6937 163.241 48.4426 163.658 48.1219L164.348 43.3763Z" stroke="#5E2C0B" stroke-width="0.6" mask="url(#path-2-outside-1_11906_22769)"/>
<mask id="mask0_11906_22769" style="mask-type:luminance" maskUnits="userSpaceOnUse" x="45" y="26" width="31" height="28">
<path d="M59.2875 36.6037C57.1327 35.6147 55.6912 33.5265 55.5303 31.161C55.4251 29.6136 55.8789 28.1096 56.7655 26.8983L45.9461 37.0258C44.5187 38.8154 45.5481 42.9601 48.2048 45.3009C48.2048 45.3009 50.8858 48.0311 56.2477 53.4915C56.2477 53.4915 62.637 53.4915 75.4155 53.4915C75.4155 53.4915 70.0395 47.8622 59.2875 36.6037Z" fill="white"/>
</mask>
<g mask="url(#mask0_11906_22769)">
<path d="M75.4154 26.8983H44.5187V53.4915H75.4154V26.8983Z" fill="url(#paint0_linear_11906_22769)"/>
</g>
<mask id="mask1_11906_22769" style="mask-type:luminance" maskUnits="userSpaceOnUse" x="31" y="9" width="45" height="28">
<path d="M55.5303 31.161C55.6912 33.5265 57.1327 35.6147 59.2875 36.6037C64.1653 37.5307 69.1642 35.7579 72.3679 31.9647C75.5716 28.1715 76.4831 22.9465 74.753 18.2926C73.0229 13.6387 68.9197 10.278 64.0161 9.4986H31.3381L45.6083 23.4311H60.4697L58.5161 25.2598L56.7655 26.8983C55.8789 28.1096 55.4251 29.6136 55.5303 31.161Z" fill="white"/>
</mask>
<g mask="url(#mask1_11906_22769)">
<path d="M76.4831 9.49841H31.3381V37.5305H76.4831V9.49841Z" fill="url(#paint1_linear_11906_22769)"/>
</g>
<path fill-rule="evenodd" clip-rule="evenodd" d="M31.3381 9.4986C61.956 13.3459 74.5577 21.7657 69.1432 34.758C70.3398 34.0111 71.4306 33.0744 72.3679 31.9647C75.5716 28.1715 76.4831 22.9465 74.753 18.2926C73.0229 13.6387 68.9197 10.278 64.0161 9.4986H31.3381Z" fill="#FFF000"/>
<path fill-rule="evenodd" clip-rule="evenodd" d="M68.4551 53.4916C56.8761 47.1235 51.1764 39.947 51.3558 31.9622L45.9461 37.0259C44.5187 38.8155 45.5481 42.9602 48.2048 45.301C48.2048 45.301 50.8858 48.0312 56.2477 53.4916C56.2477 53.4916 60.3168 53.4916 68.4551 53.4916Z" fill="#FFF000"/>
<defs>
<linearGradient id="paint0_linear_11906_22769" x1="72.4358" y1="45.1026" x2="43.2346" y2="33.6091" gradientUnits="userSpaceOnUse">
<stop stop-color="#5E2C0B"/>
<stop offset="1" stop-color="#FFEF00"/>
</linearGradient>
<linearGradient id="paint1_linear_11906_22769" x1="69.0781" y1="32.0506" x2="31.4181" y2="10.856" gradientUnits="userSpaceOnUse">
<stop stop-color="#5E2C0B"/>
<stop offset="1" stop-color="#FFEF00"/>
</linearGradient>
</defs>
</svg>
